<svg width="272" height="91" viewBox="0 0 272 91" fill="none" xmlns="http://www.w3.org/2000/svg">
<path d="M63.9739 28.7786V54.9078C63.9739 65.2784 55.5339 73.6863 45.1237 73.6863H43.217L33.4805 83.3795C33.0992 83.7594 32.5717 84 31.987 84C31.4467 84 30.9574 83.8037 30.5824 83.4745L30.4172 83.3099L30.4108 83.3036L20.7569 73.6863H18.8439C8.44003 73.6863 0 65.2784 0 54.9078V28.7786C0 18.4079 8.44003 10 18.8503 10H45.1237C55.5339 10 63.9739 18.4079 63.9739 28.7786Z" fill="#FFD666"/>
<path d="M14.895 46.197C13.0392 46.197 11.9814 48.3036 13.0582 49.8248C17.2449 55.7501 24.1677 59.6133 31.99 59.6133C39.8123 59.6133 46.7289 55.7437 50.9155 49.8248C51.9923 48.3036 50.9345 46.197 49.0787 46.197H14.895Z" fill="white"/>
<path d="M25.764 37.2298H14.5658V31.6036C14.5658 28.4977 17.074 25.9774 20.1649 25.9774C23.2558 25.9774 25.764 28.4977 25.764 31.6036V37.2298Z" fill="white"/>
<path d="M49.4148 37.2298H38.2166V31.6036C38.2166 28.4977 40.7248 25.9774 43.8157 25.9774C46.9066 25.9774 49.4148 28.4977 49.4148 31.6036V37.2298Z" fill="white"/>
<path d="M106.768 32.744C110.437 32.744 113.168 33.8747 114.96 36.136C116.752 38.3547 117.648 41.7467 117.648 46.312V60.136C117.648 61.7573 117.136 63.0373 116.112 63.976C115.088 64.9147 113.701 65.384 111.952 65.384C110.203 65.384 108.816 64.9147 107.792 63.976C106.768 63.0373 106.256 61.7573 106.256 60.136V46.056C106.256 42.984 104.933 41.448 102.288 41.448C100.581 41.448 99.216 42.0027 98.192 43.112C97.2107 44.1787 96.72 45.6293 96.72 47.464V60.136C96.72 61.7573 96.208 63.0373 95.184 63.976C94.16 64.9147 92.7733 65.384 91.024 65.384C89.2747 65.384 87.888 64.9147 86.864 63.976C85.84 63.0373 85.328 61.7573 85.328 60.136V24.68C85.328 23.1867 85.8613 21.9707 86.928 21.032C87.9947 20.0507 89.4027 19.56 91.152 19.56C92.816 19.56 94.16 20.008 95.184 20.904C96.208 21.8 96.72 22.9947 96.72 24.488V37.288C97.872 35.7947 99.3013 34.664 101.008 33.896C102.715 33.128 104.635 32.744 106.768 32.744ZM138.734 32.744C143.598 32.744 147.182 33.9173 149.486 36.264C151.833 38.568 153.006 42.088 153.006 46.824V60.2C153.006 61.8213 152.515 63.1013 151.534 64.04C150.595 64.936 149.273 65.384 147.566 65.384C146.073 65.384 144.835 64.9573 143.854 64.104C142.915 63.2507 142.403 62.0987 142.318 60.648C141.721 62.184 140.718 63.3787 139.31 64.232C137.902 65.0853 136.217 65.512 134.254 65.512C132.078 65.512 130.115 65.0853 128.366 64.232C126.617 63.336 125.23 62.12 124.206 60.584C123.225 59.0053 122.734 57.2347 122.734 55.272C122.734 53.0107 123.31 51.2187 124.462 49.896C125.657 48.5307 127.534 47.5493 130.094 46.952C132.654 46.3547 136.11 46.056 140.462 46.056H142.19V45.288C142.19 43.7947 141.849 42.728 141.166 42.088C140.483 41.4053 139.331 41.064 137.71 41.064C135.961 41.064 133.401 41.6613 130.03 42.856C129.049 43.1973 128.217 43.368 127.534 43.368C126.467 43.368 125.614 42.984 124.974 42.216C124.334 41.448 124.014 40.4453 124.014 39.208C124.014 38.2693 124.206 37.5013 124.59 36.904C124.974 36.3067 125.593 35.7733 126.446 35.304C127.939 34.536 129.817 33.9173 132.078 33.448C134.339 32.9787 136.558 32.744 138.734 32.744ZM136.942 57.896C138.478 57.896 139.737 57.3627 140.718 56.296C141.699 55.1867 142.19 53.7787 142.19 52.072V51.304H141.166C138.435 51.304 136.494 51.56 135.342 52.072C134.19 52.5413 133.614 53.352 133.614 54.504C133.614 55.4853 133.913 56.296 134.51 56.936C135.15 57.576 135.961 57.896 136.942 57.896ZM180.255 32.744C182.943 32.744 185.332 33.448 187.423 34.856C189.556 36.2213 191.199 38.1627 192.351 40.68C193.545 43.1973 194.143 46.0773 194.143 49.32C194.143 52.5627 193.545 55.4213 192.351 57.896C191.199 60.328 189.577 62.2053 187.487 63.528C185.396 64.8507 182.985 65.512 180.255 65.512C178.249 65.512 176.393 65.1067 174.687 64.296C173.023 63.4853 171.721 62.3973 170.783 61.032V71.912C170.783 73.4053 170.271 74.6 169.247 75.496C168.223 76.392 166.879 76.84 165.215 76.84C163.465 76.84 162.057 76.3493 160.991 75.368C159.924 74.4293 159.391 73.2133 159.391 71.72V38.12C159.391 36.5413 159.881 35.2827 160.863 34.344C161.887 33.3627 163.252 32.872 164.959 32.872C166.58 32.872 167.881 33.2987 168.863 34.152C169.887 35.0053 170.463 36.136 170.591 37.544C171.487 36.0507 172.788 34.8773 174.495 34.024C176.244 33.1707 178.164 32.744 180.255 32.744ZM176.799 57C178.761 57 180.255 56.3387 181.279 55.016C182.345 53.6933 182.879 51.7947 182.879 49.32C182.879 46.7173 182.345 44.7333 181.279 43.368C180.212 41.96 178.697 41.256 176.735 41.256C174.772 41.256 173.257 41.9387 172.191 43.304C171.124 44.6693 170.591 46.632 170.591 49.192C170.591 51.7093 171.124 53.6507 172.191 55.016C173.257 56.3387 174.793 57 176.799 57ZM220.255 32.744C222.943 32.744 225.332 33.448 227.423 34.856C229.556 36.2213 231.199 38.1627 232.351 40.68C233.545 43.1973 234.143 46.0773 234.143 49.32C234.143 52.5627 233.545 55.4213 232.351 57.896C231.199 60.328 229.577 62.2053 227.487 63.528C225.396 64.8507 222.985 65.512 220.255 65.512C218.249 65.512 216.393 65.1067 214.687 64.296C213.023 63.4853 211.721 62.3973 210.783 61.032V71.912C210.783 73.4053 210.271 74.6 209.247 75.496C208.223 76.392 206.879 76.84 205.215 76.84C203.465 76.84 202.057 76.3493 200.991 75.368C199.924 74.4293 199.391 73.2133 199.391 71.72V38.12C199.391 36.5413 199.881 35.2827 200.863 34.344C201.887 33.3627 203.252 32.872 204.959 32.872C206.58 32.872 207.881 33.2987 208.863 34.152C209.887 35.0053 210.463 36.136 210.591 37.544C211.487 36.0507 212.788 34.8773 214.495 34.024C216.244 33.1707 218.164 32.744 220.255 32.744ZM216.799 57C218.761 57 220.255 56.3387 221.279 55.016C222.345 53.6933 222.879 51.7947 222.879 49.32C222.879 46.7173 222.345 44.7333 221.279 43.368C220.212 41.96 218.697 41.256 216.735 41.256C214.772 41.256 213.257 41.9387 212.191 43.304C211.124 44.6693 210.591 46.632 210.591 49.192C210.591 51.7093 211.124 53.6507 212.191 55.016C213.257 56.3387 214.793 57 216.799 57ZM259.759 36.072C260.228 35.0053 260.868 34.216 261.679 33.704C262.49 33.192 263.386 32.936 264.367 32.936C265.775 32.936 267.034 33.4053 268.143 34.344C269.252 35.2827 269.807 36.4133 269.807 37.736C269.807 38.4613 269.636 39.1653 269.295 39.848L252.335 73.832C251.823 74.8987 251.14 75.688 250.287 76.2C249.476 76.712 248.58 76.968 247.599 76.968C246.191 76.968 244.932 76.4987 243.823 75.56C242.756 74.664 242.223 73.5547 242.223 72.232C242.223 71.5067 242.415 70.76 242.799 69.992L246.959 61.608L236.079 39.848C235.738 39.08 235.567 38.3973 235.567 37.8C235.567 36.4347 236.164 35.2827 237.359 34.344C238.554 33.3627 239.898 32.872 241.391 32.872C242.415 32.872 243.354 33.1493 244.207 33.704C245.103 34.216 245.786 35.0053 246.255 36.072L253.039 50.792L259.759 36.072Z" fill="white"/>
<path d="M114.96 36.136L114.568 36.4466L114.571 36.4502L114.96 36.136ZM116.112 63.976L116.45 64.3446L116.45 64.3446L116.112 63.976ZM107.792 63.976L108.13 63.6074L108.13 63.6074L107.792 63.976ZM98.192 43.112L97.8246 42.7729L97.824 42.7735L98.192 43.112ZM95.184 63.976L95.5219 64.3446L95.5219 64.3446L95.184 63.976ZM86.864 63.976L87.2019 63.6074L87.2019 63.6074L86.864 63.976ZM86.928 21.032L87.2584 21.4074L87.2665 21.4L86.928 21.032ZM95.184 20.904L94.8547 21.2803L94.8547 21.2803L95.184 20.904ZM96.72 37.288H96.22V38.7547L97.1159 37.5934L96.72 37.288ZM101.008 33.896L100.803 33.44L100.803 33.44L101.008 33.896ZM106.768 33.244C110.33 33.244 112.896 34.3364 114.568 36.4465L115.352 35.8255C113.44 33.4129 110.545 32.244 106.768 32.244V33.244ZM114.571 36.4502C116.259 38.5403 117.148 41.7968 117.148 46.312H118.148C118.148 41.6965 117.245 38.169 115.349 35.8218L114.571 36.4502ZM117.148 46.312V60.136H118.148V46.312H117.148ZM117.148 60.136C117.148 61.6428 116.677 62.7795 115.774 63.6074L116.45 64.3446C117.595 63.2952 118.148 61.8718 118.148 60.136H117.148ZM115.774 63.6074C114.865 64.4412 113.61 64.884 111.952 64.884V65.884C113.793 65.884 115.311 65.3881 116.45 64.3446L115.774 63.6074ZM111.952 64.884C110.294 64.884 109.039 64.4412 108.13 63.6074L107.454 64.3446C108.593 65.3881 110.111 65.884 111.952 65.884V64.884ZM108.13 63.6074C107.227 62.7795 106.756 61.6428 106.756 60.136H105.756C105.756 61.8718 106.309 63.2952 107.454 64.3446L108.13 63.6074ZM106.756 60.136V46.056H105.756V60.136H106.756ZM106.756 46.056C106.756 44.4597 106.414 43.1692 105.643 42.2737C104.859 41.364 103.709 40.948 102.288 40.948V41.948C103.512 41.948 104.346 42.3 104.885 42.9263C105.437 43.5668 105.756 44.5803 105.756 46.056H106.756ZM102.288 40.948C100.462 40.948 98.9561 41.5471 97.8246 42.7729L98.5594 43.4511C99.4759 42.4582 100.701 41.948 102.288 41.948V40.948ZM97.824 42.7735C96.7369 43.9551 96.22 45.5385 96.22 47.464H97.22C97.22 45.7201 97.6844 44.4022 98.56 43.4505L97.824 42.7735ZM96.22 47.464V60.136H97.22V47.464H96.22ZM96.22 60.136C96.22 61.6428 95.7493 62.7795 94.8461 63.6074L95.5219 64.3446C96.6667 63.2952 97.22 61.8718 97.22 60.136H96.22ZM94.8461 63.6074C93.9365 64.4412 92.682 64.884 91.024 64.884V65.884C92.8647 65.884 94.3835 65.3881 95.5219 64.3446L94.8461 63.6074ZM91.024 64.884C89.366 64.884 88.1115 64.4412 87.2019 63.6074L86.5261 64.3446C87.6645 65.3881 89.1833 65.884 91.024 65.884V64.884ZM87.2019 63.6074C86.2987 62.7795 85.828 61.6428 85.828 60.136H84.828C84.828 61.8718 85.3813 63.2952 86.5261 64.3446L87.2019 63.6074ZM85.828 60.136V24.68H84.828V60.136H85.828ZM85.828 24.68C85.828 23.322 86.3056 22.2457 87.2583 21.4074L86.5977 20.6566C85.4171 21.6956 84.828 23.0513 84.828 24.68H85.828ZM87.2665 21.4C88.2226 20.5204 89.5007 20.06 91.152 20.06V19.06C89.3046 19.06 87.7668 19.5809 86.5895 20.664L87.2665 21.4ZM91.152 20.06C92.7231 20.06 93.9411 20.4808 94.8547 21.2803L95.5133 20.5277C94.3789 19.5352 92.909 19.06 91.152 19.06V20.06ZM94.8547 21.2803C95.7589 22.0714 96.22 23.123 96.22 24.488H97.22C97.22 22.8663 96.6571 21.5286 95.5133 20.5277L94.8547 21.2803ZM96.22 24.488V37.288H97.22V24.488H96.22ZM97.1159 37.5934C98.2181 36.1646 99.5821 35.0859 101.213 34.352L100.803 33.44C99.0206 34.2421 97.5259 35.4247 96.3241 36.9826L97.1159 37.5934ZM101.213 34.352C102.847 33.6168 104.696 33.244 106.768 33.244V32.244C104.574 32.244 102.582 32.6392 100.803 33.44L101.213 34.352ZM149.486 36.264L149.129 36.6144L149.136 36.6208L149.486 36.264ZM151.534 64.04L151.879 64.4017L151.88 64.4013L151.534 64.04ZM143.854 64.104L143.518 64.4741L143.526 64.4813L143.854 64.104ZM142.318 60.648L142.817 60.6186L141.852 60.4668L142.318 60.648ZM139.31 64.232L139.569 64.6596L139.569 64.6596L139.31 64.232ZM128.366 64.232L128.138 64.6771L128.147 64.6814L128.366 64.232ZM124.206 60.584L123.781 60.848L123.786 60.8547L123.79 60.8613L124.206 60.584ZM124.462 49.896L124.086 49.5667L124.085 49.5676L124.462 49.896ZM130.094 46.952L130.208 47.4389L130.208 47.4389L130.094 46.952ZM142.19 46.056V46.556H142.69V46.056H142.19ZM141.166 42.088L140.812 42.4416L140.818 42.4473L140.824 42.4528L141.166 42.088ZM130.03 42.856L130.194 43.3283L130.197 43.3273L130.03 42.856ZM124.974 42.216L124.59 42.5361L124.59 42.5361L124.974 42.216ZM124.59 36.904L124.169 36.6336L124.169 36.6336L124.59 36.904ZM126.446 35.304L126.217 34.8592L126.205 34.8659L126.446 35.304ZM132.078 33.448L131.976 32.9584L131.976 32.9584L132.078 33.448ZM140.718 56.296L141.086 56.6346L141.092 56.6273L140.718 56.296ZM142.19 51.304H142.69V50.804H142.19V51.304ZM135.342 52.072L135.531 52.535L135.538 52.5321L135.545 52.5289L135.342 52.072ZM134.51 56.936L134.144 57.2772L134.15 57.2835L134.156 57.2896L134.51 56.936ZM138.734 33.244C143.528 33.244 146.956 34.4011 149.129 36.6143L149.843 35.9137C147.408 33.4336 143.668 32.244 138.734 32.244V33.244ZM149.136 36.6208C151.351 38.796 152.506 42.1627 152.506 46.824H153.506C153.506 42.0133 152.314 38.34 149.836 35.9072L149.136 36.6208ZM152.506 46.824V60.2H153.506V46.824H152.506ZM152.506 60.2C152.506 61.7134 152.052 62.8524 151.188 63.6787L151.88 64.4013C152.978 63.3503 153.506 61.9292 153.506 60.2H152.506ZM151.189 63.6783C150.369 64.4604 149.186 64.884 147.566 64.884V65.884C149.359 65.884 150.821 65.4116 151.879 64.4017L151.189 63.6783ZM147.566 64.884C146.174 64.884 145.059 64.4893 144.182 63.7267L143.526 64.4813C144.612 65.4254 145.971 65.884 147.566 65.884V64.884ZM144.19 63.734C143.363 62.9815 142.896 61.9594 142.817 60.6186L141.819 60.6774C141.911 62.2379 142.468 63.5198 143.518 64.474L144.19 63.734ZM141.852 60.4668C141.295 61.9002 140.365 63.0082 139.051 63.8044L139.569 64.6596C141.071 63.7491 142.147 62.4678 142.784 60.8292L141.852 60.4668ZM139.051 63.8044C137.735 64.602 136.143 65.012 134.254 65.012V66.012C136.29 66.012 138.069 65.5687 139.569 64.6596L139.051 63.8044ZM134.254 65.012C132.145 65.012 130.259 64.5989 128.585 63.7826L128.147 64.6814C129.972 65.5718 132.011 66.012 134.254 66.012V65.012ZM128.594 63.787C126.916 62.9273 125.596 61.767 124.622 60.3066L123.79 60.8613C124.864 62.473 126.318 63.7447 128.138 64.677L128.594 63.787ZM124.631 60.32C123.701 58.8251 123.234 57.1468 123.234 55.272H122.234C122.234 57.3225 122.748 59.1856 123.781 60.848L124.631 60.32ZM123.234 55.272C123.234 53.0956 123.787 51.4323 124.839 50.2244L124.085 49.5676C122.833 51.0051 122.234 52.9257 122.234 55.272H123.234ZM124.838 50.2253C125.939 48.9669 127.706 48.0227 130.208 47.4389L129.98 46.4651C127.362 47.076 125.374 48.0945 124.086 49.5667L124.838 50.2253ZM130.208 47.4389C132.714 46.8541 136.127 46.556 140.462 46.556V45.556C136.093 45.556 132.594 45.8553 129.98 46.4651L130.208 47.4389ZM140.462 46.556H142.19V45.556H140.462V46.556ZM142.69 46.056V45.288H141.69V46.056H142.69ZM142.69 45.288C142.69 43.7366 142.338 42.5013 141.508 41.7232L140.824 42.4528C141.359 42.9547 141.69 43.8527 141.69 45.288H142.69ZM141.52 41.7344C140.697 40.9115 139.379 40.564 137.71 40.564V41.564C139.284 41.564 140.27 41.8992 140.812 42.4416L141.52 41.7344ZM137.71 40.564C135.871 40.564 133.243 41.1866 129.863 42.3847L130.197 43.3273C133.558 42.136 136.051 41.564 137.71 41.564V40.564ZM129.866 42.3838C128.913 42.7153 128.14 42.868 127.534 42.868V43.868C128.294 43.868 129.185 43.6794 130.194 43.3282L129.866 42.3838ZM127.534 42.868C126.604 42.868 125.896 42.5415 125.358 41.8959L124.59 42.5361C125.332 43.4265 126.33 43.868 127.534 43.868V42.868ZM125.358 41.8959C124.81 41.2376 124.514 40.3571 124.514 39.208H123.514C123.514 40.5336 123.858 41.6584 124.59 42.5361L125.358 41.8959ZM124.514 39.208C124.514 38.335 124.693 37.6689 125.011 37.1744L124.169 36.6336C123.719 37.3337 123.514 38.2037 123.514 39.208H124.514ZM125.011 37.1744C125.336 36.6682 125.881 36.1855 126.687 35.7421L126.205 34.8659C125.305 35.3611 124.612 35.9451 124.169 36.6336L125.011 37.1744ZM126.675 35.7486C128.116 35.0074 129.947 34.4009 132.18 33.9376L131.976 32.9584C129.686 33.4338 127.763 34.0646 126.217 34.8594L126.675 35.7486ZM132.18 33.9376C134.41 33.4747 136.594 33.244 138.734 33.244V32.244C136.522 32.244 134.269 32.4826 131.976 32.9584L132.18 33.9376ZM136.942 58.396C138.608 58.396 140.004 57.8108 141.086 56.6345L140.35 55.9575C139.47 56.9145 138.348 57.396 136.942 57.396V58.396ZM141.092 56.6273C142.167 55.4127 142.69 53.8809 142.69 52.072H141.69C141.69 53.6764 141.232 54.9606 140.344 55.9647L141.092 56.6273ZM142.69 52.072V51.304H141.69V52.072H142.69ZM142.19 50.804H141.166V51.804H142.19V50.804ZM141.166 50.804C138.428 50.804 136.394 51.0571 135.139 51.6151L135.545 52.5289C136.594 52.0629 138.442 51.804 141.166 51.804V50.804ZM135.153 51.609C134.511 51.8705 133.994 52.2423 133.638 52.7424C133.281 53.2452 133.114 53.8412 133.114 54.504H134.114C134.114 54.0148 134.235 53.6295 134.454 53.3216C134.674 53.011 135.021 52.7428 135.531 52.535L135.153 51.609ZM133.114 54.504C133.114 55.5954 133.45 56.5331 134.144 57.2772L134.876 56.5948C134.375 56.0589 134.114 55.3752 134.114 54.504H133.114ZM134.156 57.2896C134.899 58.0317 135.84 58.396 136.942 58.396V57.396C136.081 57.396 135.401 57.1203 134.864 56.5824L134.156 57.2896ZM187.423 34.856L187.143 35.2708L187.153 35.2771L187.423 34.856ZM192.351 40.68L191.896 40.8881L191.899 40.8944L192.351 40.68ZM192.351 57.896L191.9 57.6786L191.899 57.682L192.351 57.896ZM187.487 63.528L187.219 63.1055L187.219 63.1055L187.487 63.528ZM174.687 64.296L174.468 64.7455L174.472 64.7476L174.687 64.296ZM170.783 61.032L171.195 60.7487L170.283 59.4222V61.032H170.783ZM169.247 75.496L169.576 75.8723L169.576 75.8723L169.247 75.496ZM160.991 75.368L161.329 74.9999L161.321 74.9926L160.991 75.368ZM160.863 34.344L161.208 34.7053L161.208 34.705L160.863 34.344ZM168.863 34.152L168.534 34.5294L168.542 34.5361L168.863 34.152ZM170.591 37.544L170.093 37.5893L170.231 39.1146L171.019 37.8012L170.591 37.544ZM174.495 34.024L174.275 33.5746L174.271 33.5768L174.495 34.024ZM181.279 55.016L180.889 54.7021L180.883 54.7099L181.279 55.016ZM181.279 43.368L180.88 43.67L180.884 43.6758L181.279 43.368ZM172.191 43.304L171.796 42.9962L171.796 42.9962L172.191 43.304ZM172.191 55.016L171.796 55.3239L171.801 55.3299L172.191 55.016ZM180.255 33.244C182.85 33.244 185.141 33.9221 187.143 35.2707L187.702 34.4413C185.523 32.9739 183.035 32.244 180.255 32.244V33.244ZM187.153 35.2771C189.198 36.5859 190.78 38.4496 191.896 40.8881L192.805 40.4719C191.617 37.8757 189.914 35.8568 187.692 34.4349L187.153 35.2771ZM191.899 40.8944C193.057 43.3346 193.643 46.1394 193.643 49.32H194.643C194.643 46.0153 194.033 43.0601 192.802 40.4656L191.899 40.8944ZM193.643 49.32C193.643 52.5008 193.057 55.2829 191.9 57.6786L192.801 58.1134C194.034 55.5598 194.643 52.6245 194.643 49.32H193.643ZM191.899 57.682C190.783 60.0362 189.223 61.8378 187.219 63.1055L187.754 63.9505C189.932 62.5728 191.614 60.6198 192.802 58.11L191.899 57.682ZM187.219 63.1055C185.217 64.3724 182.901 65.012 180.255 65.012V66.012C183.07 66.012 185.575 65.329 187.754 63.9505L187.219 63.1055ZM180.255 65.012C178.319 65.012 176.537 64.6212 174.901 63.8444L174.472 64.7476C176.25 65.5921 178.18 66.012 180.255 66.012V65.012ZM174.905 63.8465C173.31 63.0691 172.079 62.0349 171.195 60.7487L170.37 61.3153C171.364 62.7598 172.735 63.9015 174.468 64.7455L174.905 63.8465ZM170.283 61.032V71.912H171.283V61.032H170.283ZM170.283 71.912C170.283 73.277 169.821 74.3286 168.917 75.1197L169.576 75.8723C170.72 74.8714 171.283 73.5337 171.283 71.912H170.283ZM168.917 75.1197C168.004 75.9192 166.786 76.34 165.215 76.34V77.34C166.971 77.34 168.441 76.8648 169.576 75.8723L168.917 75.1197ZM165.215 76.34C163.563 76.34 162.285 75.8796 161.329 75L160.652 75.736C161.829 76.8191 163.367 77.34 165.215 77.34V76.34ZM161.321 74.9926C160.368 74.1543 159.891 73.078 159.891 71.72H158.891C158.891 73.3487 159.48 74.7044 160.66 75.7434L161.321 74.9926ZM159.891 71.72V38.12H158.891V71.72H159.891ZM159.891 38.12C159.891 36.6537 160.342 35.5342 161.208 34.7053L160.517 33.9827C159.421 35.0311 158.891 36.429 158.891 38.12H159.891ZM161.208 34.705C162.121 33.8304 163.353 33.372 164.959 33.372V32.372C163.151 32.372 161.652 32.8949 160.517 33.983L161.208 34.705ZM164.959 33.372C166.49 33.372 167.665 33.7732 168.534 34.5293L169.191 33.7747C168.097 32.8241 166.67 32.372 164.959 32.372V33.372ZM168.542 34.5361C169.458 35.299 169.976 36.3044 170.093 37.5893L171.088 37.4987C170.949 35.9676 170.315 34.7117 169.183 33.7679L168.542 34.5361ZM171.019 37.8012C171.862 36.3972 173.088 35.2862 174.718 34.4712L174.271 33.5768C172.488 34.4684 171.111 35.7041 170.162 37.2868L171.019 37.8012ZM174.714 34.4734C176.39 33.6558 178.234 33.244 180.255 33.244V32.244C178.094 32.244 176.098 32.6855 174.275 33.5746L174.714 34.4734ZM176.799 57.5C178.886 57.5 180.538 56.7891 181.674 55.3221L180.883 54.7099C179.971 55.8882 178.637 56.5 176.799 56.5V57.5ZM181.668 55.3299C182.832 53.8856 183.379 51.8583 183.379 49.32H182.379C182.379 51.731 181.858 53.501 180.889 54.7021L181.668 55.3299ZM183.379 49.32C183.379 46.6593 182.835 44.5479 181.673 43.0602L180.884 43.6758C181.856 44.9188 182.379 46.7754 182.379 49.32H183.379ZM181.677 43.0661C180.504 41.5182 178.834 40.756 176.735 40.756V41.756C178.561 41.756 179.919 42.4018 180.88 43.6699L181.677 43.0661ZM176.735 40.756C174.641 40.756 172.971 41.4924 171.796 42.9962L172.585 43.6118C173.543 42.385 174.903 41.756 176.735 41.756V40.756ZM171.796 42.9962C170.635 44.4827 170.091 46.5716 170.091 49.192H171.091C171.091 46.6924 171.613 44.856 172.585 43.6118L171.796 42.9962ZM170.091 49.192C170.091 51.772 170.636 53.8386 171.796 55.3238L172.585 54.7082C171.612 53.4628 171.091 51.6466 171.091 49.192H170.091ZM171.801 55.3299C172.98 56.792 174.672 57.5 176.799 57.5V56.5C174.914 56.5 173.534 55.8853 172.58 54.7021L171.801 55.3299ZM227.423 34.856L227.143 35.2708L227.153 35.2771L227.423 34.856ZM232.351 40.68L231.896 40.8881L231.899 40.8944L232.351 40.68ZM232.351 57.896L231.9 57.6786L231.899 57.682L232.351 57.896ZM227.487 63.528L227.219 63.1055L227.219 63.1055L227.487 63.528ZM214.687 64.296L214.468 64.7455L214.472 64.7476L214.687 64.296ZM210.783 61.032L211.195 60.7487L210.283 59.4222V61.032H210.783ZM209.247 75.496L209.576 75.8723L209.576 75.8723L209.247 75.496ZM200.991 75.368L201.329 74.9999L201.321 74.9926L200.991 75.368ZM200.863 34.344L201.208 34.7053L201.208 34.705L200.863 34.344ZM208.863 34.152L208.534 34.5294L208.542 34.5361L208.863 34.152ZM210.591 37.544L210.093 37.5893L210.231 39.1146L211.019 37.8012L210.591 37.544ZM214.495 34.024L214.275 33.5746L214.271 33.5768L214.495 34.024ZM221.279 55.016L220.889 54.7021L220.883 54.7099L221.279 55.016ZM221.279 43.368L220.88 43.67L220.884 43.6758L221.279 43.368ZM212.191 43.304L211.796 42.9962L211.796 42.9962L212.191 43.304ZM212.191 55.016L211.796 55.3239L211.801 55.3299L212.191 55.016ZM220.255 33.244C222.85 33.244 225.141 33.9221 227.143 35.2707L227.702 34.4413C225.523 32.9739 223.035 32.244 220.255 32.244V33.244ZM227.153 35.2771C229.198 36.5859 230.78 38.4496 231.896 40.8881L232.805 40.4719C231.617 37.8757 229.914 35.8568 227.692 34.4349L227.153 35.2771ZM231.899 40.8944C233.057 43.3346 233.643 46.1394 233.643 49.32H234.643C234.643 46.0153 234.033 43.0601 232.802 40.4656L231.899 40.8944ZM233.643 49.32C233.643 52.5008 233.057 55.2829 231.9 57.6786L232.801 58.1134C234.034 55.5598 234.643 52.6245 234.643 49.32H233.643ZM231.899 57.682C230.783 60.0362 229.223 61.8378 227.219 63.1055L227.754 63.9505C229.932 62.5728 231.614 60.6198 232.802 58.11L231.899 57.682ZM227.219 63.1055C225.217 64.3724 222.901 65.012 220.255 65.012V66.012C223.07 66.012 225.575 65.329 227.754 63.9505L227.219 63.1055ZM220.255 65.012C218.319 65.012 216.537 64.6212 214.901 63.8444L214.472 64.7476C216.25 65.5921 218.18 66.012 220.255 66.012V65.012ZM214.905 63.8465C213.31 63.0691 212.079 62.0349 211.195 60.7487L210.37 61.3153C211.364 62.7598 212.735 63.9015 214.468 64.7455L214.905 63.8465ZM210.283 61.032V71.912H211.283V61.032H210.283ZM210.283 71.912C210.283 73.277 209.821 74.3286 208.917 75.1197L209.576 75.8723C210.72 74.8714 211.283 73.5337 211.283 71.912H210.283ZM208.917 75.1197C208.004 75.9192 206.786 76.34 205.215 76.34V77.34C206.971 77.34 208.441 76.8648 209.576 75.8723L208.917 75.1197ZM205.215 76.34C203.563 76.34 202.285 75.8796 201.329 75L200.652 75.736C201.829 76.8191 203.367 77.34 205.215 77.34V76.34ZM201.321 74.9926C200.368 74.1543 199.891 73.078 199.891 71.72H198.891C198.891 73.3487 199.48 74.7044 200.66 75.7434L201.321 74.9926ZM199.891 71.72V38.12H198.891V71.72H199.891ZM199.891 38.12C199.891 36.6537 200.342 35.5342 201.208 34.7053L200.517 33.9827C199.421 35.0311 198.891 36.429 198.891 38.12H199.891ZM201.208 34.705C202.121 33.8304 203.353 33.372 204.959 33.372V32.372C203.151 32.372 201.652 32.8949 200.517 33.983L201.208 34.705ZM204.959 33.372C206.49 33.372 207.665 33.7732 208.534 34.5293L209.191 33.7747C208.097 32.8241 206.67 32.372 204.959 32.372V33.372ZM208.542 34.5361C209.458 35.299 209.976 36.3044 210.093 37.5893L211.088 37.4987C210.949 35.9676 210.315 34.7117 209.183 33.7679L208.542 34.5361ZM211.019 37.8012C211.862 36.3972 213.088 35.2862 214.718 34.4712L214.271 33.5768C212.488 34.4684 211.111 35.7041 210.162 37.2868L211.019 37.8012ZM214.714 34.4734C216.39 33.6558 218.234 33.244 220.255 33.244V32.244C218.094 32.244 216.098 32.6855 214.275 33.5746L214.714 34.4734ZM216.799 57.5C218.886 57.5 220.538 56.7891 221.674 55.3221L220.883 54.7099C219.971 55.8882 218.637 56.5 216.799 56.5V57.5ZM221.668 55.3299C222.832 53.8856 223.379 51.8583 223.379 49.32H222.379C222.379 51.731 221.858 53.501 220.889 54.7021L221.668 55.3299ZM223.379 49.32C223.379 46.6593 222.835 44.5479 221.673 43.0602L220.884 43.6758C221.856 44.9188 222.379 46.7754 222.379 49.32H223.379ZM221.677 43.0661C220.504 41.5182 218.834 40.756 216.735 40.756V41.756C218.561 41.756 219.919 42.4018 220.88 43.6699L221.677 43.0661ZM216.735 40.756C214.641 40.756 212.971 41.4924 211.796 42.9962L212.585 43.6118C213.543 42.385 214.903 41.756 216.735 41.756V40.756ZM211.796 42.9962C210.635 44.4827 210.091 46.5716 210.091 49.192H211.091C211.091 46.6924 211.613 44.856 212.585 43.6118L211.796 42.9962ZM210.091 49.192C210.091 51.772 210.636 53.8386 211.796 55.3238L212.585 54.7082C211.612 53.4628 211.091 51.6466 211.091 49.192H210.091ZM211.801 55.3299C212.98 56.792 214.672 57.5 216.799 57.5V56.5C214.914 56.5 213.534 55.8853 212.58 54.7021L211.801 55.3299ZM259.759 36.072L260.214 36.2797L260.217 36.2734L259.759 36.072ZM261.679 33.704L261.946 34.1267L261.946 34.1267L261.679 33.704ZM268.143 34.344L267.82 34.7257L267.82 34.7257L268.143 34.344ZM269.295 39.848L268.848 39.6244L268.848 39.6247L269.295 39.848ZM252.335 73.832L251.888 73.6087L251.884 73.6156L252.335 73.832ZM250.287 76.2L250.03 75.7711L250.02 75.7773L250.287 76.2ZM243.823 75.56L244.146 75.1783L244.145 75.1771L243.823 75.56ZM242.799 69.992L243.246 70.2156L243.247 70.2142L242.799 69.992ZM246.959 61.608L247.407 61.8302L247.518 61.6071L247.406 61.3844L246.959 61.608ZM236.079 39.848L235.622 40.0511L235.627 40.0614L235.632 40.0716L236.079 39.848ZM237.359 34.344L237.668 34.7372L237.676 34.7304L237.359 34.344ZM244.207 33.704L243.935 34.1232L243.947 34.131L243.959 34.1381L244.207 33.704ZM246.255 36.072L245.797 36.2734L245.801 36.2813L246.255 36.072ZM253.039 50.792L252.585 51.0013L253.041 51.9913L253.494 50.9996L253.039 50.792ZM260.217 36.2734C260.655 35.278 261.236 34.5751 261.946 34.1267L261.412 33.2813C260.501 33.8569 259.802 34.7327 259.301 35.8706L260.217 36.2734ZM261.946 34.1267C262.675 33.6664 263.478 33.436 264.367 33.436V32.436C263.293 32.436 262.305 32.7175 261.412 33.2813L261.946 34.1267ZM264.367 33.436C265.653 33.436 266.798 33.8607 267.82 34.7257L268.466 33.9623C267.27 32.9499 265.897 32.436 264.367 32.436V33.436ZM267.82 34.7257C268.83 35.5799 269.307 36.5761 269.307 37.736H270.307C270.307 36.2506 269.675 34.9854 268.466 33.9623L267.82 34.7257ZM269.307 37.736C269.307 38.3796 269.156 39.0074 268.848 39.6244L269.742 40.0716C270.116 39.3232 270.307 38.543 270.307 37.736H269.307ZM268.848 39.6247L251.888 73.6087L252.782 74.0553L269.742 40.0713L268.848 39.6247ZM251.884 73.6156C251.406 74.611 250.784 75.3185 250.03 75.7713L250.544 76.6287C251.496 76.0575 252.24 75.1863 252.786 74.0484L251.884 73.6156ZM250.02 75.7773C249.291 76.2376 248.488 76.468 247.599 76.468V77.468C248.673 77.468 249.661 77.1865 250.554 76.6227L250.02 75.7773ZM247.599 76.468C246.313 76.468 245.168 76.0433 244.146 75.1783L243.5 75.9417C244.696 76.9541 246.069 77.468 247.599 77.468V76.468ZM244.145 75.1771C243.184 74.3704 242.723 73.3982 242.723 72.232H241.723C241.723 73.7111 242.329 74.9576 243.501 75.9429L244.145 75.1771ZM242.723 72.232C242.723 71.5973 242.891 70.9269 243.246 70.2156L242.352 69.7684C241.939 70.5931 241.723 71.416 241.723 72.232H242.723ZM243.247 70.2142L247.407 61.8302L246.511 61.3858L242.351 69.7698L243.247 70.2142ZM247.406 61.3844L236.526 39.6244L235.632 40.0716L246.512 61.8316L247.406 61.3844ZM236.536 39.6449C236.212 38.9166 236.067 38.305 236.067 37.8H235.067C235.067 38.4897 235.263 39.2434 235.622 40.0511L236.536 39.6449ZM236.067 37.8C236.067 36.6068 236.578 35.5932 237.668 34.7372L237.05 33.9508C235.75 34.9721 235.067 36.2625 235.067 37.8H236.067ZM237.676 34.7304C238.785 33.8197 240.018 33.372 241.391 33.372V32.372C239.778 32.372 238.322 32.9056 237.042 33.9576L237.676 34.7304ZM241.391 33.372C242.319 33.372 243.163 33.6216 243.935 34.1232L244.479 33.2848C243.545 32.677 242.511 32.372 241.391 32.372V33.372ZM243.959 34.1381C244.75 34.5902 245.365 35.2915 245.797 36.2734L246.713 35.8706C246.206 34.7192 245.456 33.8418 244.455 33.2699L243.959 34.1381ZM245.801 36.2813L252.585 51.0013L253.493 50.5827L246.709 35.8627L245.801 36.2813ZM253.494 50.9996L260.214 36.2796L259.304 35.8644L252.584 50.5844L253.494 50.9996Z" fill="#202020"/>
</svg>
